<?xml version="1.0" encoding="utf-8"?>
<!-- Generator: Adobe Illustrator 20.1.0, SVG Export Plug-In . SVG Version: 6.00 Build 0)  -->
<svg version="1.1" id="Layer_1" xmlns="http://www.w3.org/2000/svg" xmlns:xlink="http://www.w3.org/1999/xlink" x="0px" y="0px"
	 viewBox="0 0 512 512" style="enable-background:new 0 0 512 512;" xml:space="preserve">
<style type="text/css">
	.st0{fill:#EDE6D8;}
</style>
<path d="M480,224l-121,20c16.7,22.7,25,48,25,76c0,35.3-12.5,65.5-37.5,90.5S291.3,448,256,448c-28.3,0-53.7-8.2-76-24.8
	s-37.7-37.9-46-64.2l-41,72.5c-5,8.7-12.5,14-22.5,16c-2,0.3-3.8,0.5-5.5,0.5h-0.5H64H32c-8.7,0-16.2-3.2-22.5-9.5S0,424.6,0,415.8
	s3.2-16.3,9.5-22.5S23.3,384,32,384h13l55.5-97l-4.5,1c-24.3,1.3-46.4-7.8-66.2-27.5S0,218,0,192c0-26.3,9-49.2,27-68.8
	S66,94.7,90,96h6V80c0-4.3,1.6-8.1,4.8-11.2S107.7,64,112,64s8.1,1.6,11.2,4.8S128,75.7,128,80v16h352c9,0,16.6,6.2,22.8,18.8
	s9.2,27.6,9.2,45.2c0,17-3,31.2-9,42.5S489.3,221,480,224z M256,256c-17.7,0-32.8,6.2-45.2,18.8S192,302.3,192,320
	s6.2,32.8,18.8,45.2S238.3,384,256,384s32.8-6.2,45.2-18.8S320,337.7,320,320s-6.2-32.8-18.8-45.2S273.7,256,256,256z M255.8,352
	c-8.8,0-16.3-3.2-22.5-9.5s-9.2-13.9-9.2-22.8s3.1-16.3,9.2-22.5s13.7-9.2,22.5-9.2c8.8,0,16.4,3.1,22.8,9.2s9.5,13.7,9.5,22.5
	s-3.2,16.4-9.5,22.8S264.6,352,255.8,352z"/>
<g>
	<path class="st0" d="M93.6,138.1c5.6-0.7,13.6-1.1,21.2-1.1c11.8,0,19.4,1.3,24.7,4.4c4.3,2.4,6.7,6,6.7,10.1
		c0,7-7.1,11.7-16.1,13.6v0.2c6.6,1.4,10.5,5.2,12.5,10.8c2.8,7.4,4.8,12.6,6.6,14.6h-11.4c-1.4-1.5-3.3-6.1-5.7-12.7
		c-2.5-7.4-7.1-10.1-17.1-10.4h-10.4v23.1h-11V138.1z M104.7,162.4h11.3c11.8,0,19.3-4,19.3-10.1c0-6.9-8-9.9-19.6-10
		c-5.3,0-9.1,0.3-10.9,0.6V162.4z"/>
	<path class="st0" d="M168.2,172.8c0.3,9.4,9.9,13.3,21,13.3c8,0,12.8-0.9,17-2l1.9,5c-3.9,1.1-10.6,2.4-20.4,2.4
		c-18.9,0-30.2-7.8-30.2-19.3s10.9-20.6,28.8-20.6c20,0,25.4,11,25.4,18c0,1.4-0.3,2.5-0.4,3.2H168.2z M200.9,167.8
		c0.1-4.4-2.9-11.3-15.5-11.3c-11.3,0-16.2,6.5-17.1,11.3H200.9z"/>
	<path class="st0" d="M259.4,190.7l-0.9-4.8h-0.4c-3.4,3-10,5.7-18.8,5.7c-12.4,0-18.8-5.5-18.8-11c0-9.3,13.2-14.3,36.9-14.2v-0.8
		c0-3.2-1.4-8.9-13.9-8.9c-5.7,0-11.7,1.1-16,2.8l-2.5-4.6c5.1-2.1,12.4-3.4,20.2-3.4c18.8,0,23.3,8,23.3,15.7v14.3
		c0,3.3,0.3,6.6,1,9.2H259.4z M257.8,171.2c-12.2-0.2-26,1.2-26,8.6c0,4.5,4.8,6.6,10.5,6.6c8,0,13.1-3.2,14.8-6.4
		c0.4-0.7,0.6-1.5,0.6-2.2V171.2z"/>
	<path class="st0" d="M286.6,134.5h11.2v56.2h-11.2V134.5z"/>
	<path class="st0" d="M328.9,141.7c0.1,2.4-2.7,4.3-7.1,4.3c-3.9,0-6.7-1.9-6.7-4.3c0-2.5,2.9-4.4,7-4.4
		C326.2,137.3,328.9,139.2,328.9,141.7z M316.5,190.7v-38.3h11.2v38.3H316.5z"/>
	<path class="st0" d="M359.6,141.4v11h16v5.3h-16v20.6c0,4.7,2.2,7.4,8.4,7.4c2.9,0,5.1-0.2,6.5-0.5l0.5,5.2
		c-2.2,0.6-5.6,0.9-9.9,0.9c-5.2,0-9.4-1-12-2.9c-3.2-2.1-4.3-5.5-4.3-10v-20.9h-9.5v-5.3h9.5v-9.2L359.6,141.4z"/>
	<path class="st0" d="M393.3,152.4l13.4,22.6c1.4,2.5,2.9,5.5,3.9,7.8h0.3c1.1-2.3,2.4-5.2,3.9-8l12.2-22.5h11.8L422,179.7
		c-8,13.1-13.4,19.9-21,24c-5.5,3-10.9,4.2-13.7,4.5l-2.8-5.9c2.8-0.6,6.5-1.7,9.8-3.4c3-1.5,6.8-4.2,9.4-7.8
		c0.5-0.7,0.9-1.3,0.9-1.7s-0.3-0.9-0.8-1.8l-22.7-35.3H393.3z"/>
</g>
</svg>
